<svg width="163" height="39" viewBox="0 0 163 39" fill="none" xmlns="http://www.w3.org/2000/svg">
<path d="M58.1 8.4C58.1 6.5 59.6 5 61.5 5H66.3C71.5 5 75.5 5.8 78.5 7.9C82.1 10.4 84.1 14.5 84.1 19.4C84.1 24 82.4 27.8 79.3 30.4C76.3 32.8 72.2 34 66.1 34H61.6C59.7 34 58.2 32.5 58.2 30.6V8.4H58.1ZM66.2 28.4C70.3 28.4 73 27.7 74.8 26.1C76.5 24.6 77.6 22.3 77.6 19.4C77.6 16.4 76.4 13.8 74.2 12.3C72.2 10.9 69.4 10.5 66.2 10.5H64.5V28.4H66.2Z" fill="white"/>
<path d="M95.1 5H101.5V34H95.1V5Z" fill="white"/>
<path d="M117.5 5H132.5V10.6H120.5V16.8H130.8V22.1H120.5V34H114.1V8.4C114.1 6.5 115.6 5 117.5 5Z" fill="white"/>
<path d="M147.4 5H162.4V10.6H150.4V16.8H160.7V22.1H150.4V34H144V8.4C144.1 6.5 145.6 5 147.4 5Z" fill="white"/>
<path d="M36.3999 35.3H3.59994C0.89994 35.3 -0.70006 32.4 0.59994 30.1L16.9999 2.30002C18.2999 1.52588e-05 21.5999 1.52588e-05 22.8999 2.30002L39.2999 30C40.6999 32.4 38.9999 35.3 36.3999 35.3Z" fill="#EF3B7B"/>
<path d="M41.4999 38.7H8.79989C6.09989 38.7 4.49989 35.8 5.79989 33.5L22.1999 5.80002C23.4999 3.50002 26.7999 3.50002 28.0999 5.80002L44.4999 33.5C45.8999 35.8 44.1999 38.7 41.4999 38.7Z" fill="#4648B0"/>
</svg>
